<?xml version="1.0" standalone="no"?>
<!DOCTYPE svg PUBLIC "-//W3C//DTD SVG 20010904//EN"
 "http://www.w3.org/TR/2001/REC-SVG-20010904/DTD/svg10.dtd">
<svg version="1.0" xmlns="http://www.w3.org/2000/svg"
 width="260.000000pt" height="260.000000pt" viewBox="0 0 260.000000 260.000000"
 preserveAspectRatio="xMidYMid meet">
<metadata>
Created by potrace 1.11, written by Peter Selinger 2001-2013
</metadata>
<g transform="translate(0.000000,260.000000) scale(0.100000,-0.100000)"
fill="#000000" stroke="none">
<path d="M1238 2041 c-72 -46 -178 -168 -161 -185 10 -10 23 -7 23 7 1 16 84
108 134 147 60 47 76 42 172 -55 46 -47 84 -92 84 -100 0 -16 15 -20 24 -7 11
17 -90 136 -158 186 -48 36 -70 37 -118 7z"/>
<path d="M755 1981 c-3 -5 6 -27 21 -48 46 -68 77 -137 75 -169 -1 -22 9 -43
34 -75 19 -24 35 -47 35 -51 0 -4 5 -19 10 -34 7 -18 14 -24 21 -17 13 13 -14
75 -53 124 -17 21 -27 43 -23 49 9 15 -20 91 -56 150 -15 24 -26 46 -24 48 13
13 167 -58 229 -105 38 -29 76 -53 83 -53 21 0 83 -64 75 -77 -8 -12 -33 -19
-100 -27 -95 -12 -124 -54 -86 -128 11 -21 19 -27 26 -20 7 7 4 20 -8 41 -14
24 -16 36 -8 49 13 19 73 40 122 41 18 1 54 12 80 26 60 32 107 32 168 -1 27
-14 75 -30 108 -35 77 -13 96 -23 89 -50 -3 -12 -9 -16 -12 -10 -10 15 -121 7
-132 -10 -6 -10 -9 -10 -9 -1 0 28 -98 -5 -122 -42 -6 -8 -8 -8 -8 1 0 15 -85
47 -104 40 -8 -3 -17 -1 -19 6 -2 7 -24 12 -53 13 -27 0 -61 4 -76 8 -22 6
-28 5 -28 -7 0 -18 72 -33 115 -25 28 6 32 -7 10 -35 -20 -27 -5 -97 21 -97
11 0 12 4 4 19 -21 41 -4 97 30 95 36 -2 71 -18 81 -35 8 -16 5 -22 -23 -37
-61 -32 -137 -113 -170 -180 -42 -85 -45 -180 -9 -257 13 -27 25 -54 25 -59 1
-5 7 -11 14 -13 19 -7 14 21 -14 76 -37 71 -37 159 -1 233 32 64 95 134 160
176 l47 32 59 -45 c83 -63 125 -114 151 -181 31 -82 30 -156 -4 -223 -30 -60
-33 -81 -10 -81 8 0 13 4 10 8 -3 5 6 30 19 56 13 26 27 67 31 91 11 74 -28
196 -80 254 l-21 23 66 62 c63 58 126 91 212 112 32 7 32 10 27 -111 -1 -22 2
-76 6 -120 5 -63 3 -94 -11 -140 -20 -71 -53 -105 -148 -155 -61 -32 -85 -55
-73 -68 3 -2 17 5 32 17 33 26 40 26 47 2 3 -15 -2 -20 -27 -24 -17 -3 -63
-12 -102 -20 -60 -12 -78 -12 -110 -1 -43 15 -69 3 -34 -16 36 -19 92 -19 187
1 165 35 258 22 393 -56 41 -23 92 -45 112 -48 62 -9 90 -29 133 -94 76 -117
117 -60 72 98 -20 68 -84 146 -111 136 -9 -4 -14 -11 -11 -17 4 -6 10 -8 15
-5 9 6 48 -41 70 -85 19 -35 38 -133 31 -153 -5 -14 -16 -5 -49 43 -51 71 -72
87 -138 99 -27 5 -81 28 -119 51 -84 49 -159 72 -237 74 -69 1 -76 17 -15 35
23 7 92 39 152 72 129 68 189 86 305 88 46 1 106 7 134 13 44 9 111 7 189 -7
38 -7 47 20 16 50 -56 54 -320 121 -371 94 -28 -15 -22 -30 10 -22 46 12 100
6 190 -23 93 -28 174 -65 157 -71 -6 -2 -38 0 -70 5 -40 5 -82 4 -125 -4 -36
-7 -104 -13 -152 -13 -99 -1 -172 -22 -272 -78 -140 -77 -245 -118 -161 -62
28 19 58 43 67 54 25 30 52 123 50 175 -5 201 -9 288 -16 298 -4 7 -18 12 -31
12 -28 0 -151 -45 -173 -63 -17 -13 -16 -10 12 45 10 20 16 44 13 53 -8 20
-59 41 -112 47 -22 3 -63 17 -92 31 -55 28 -137 36 -173 17 -15 -8 -20 -5 -28
18 -7 20 -26 37 -63 56 -30 15 -71 41 -91 59 -43 37 -76 55 -171 91 -71 27
-102 32 -112 17z m793 -390 c10 -6 10 -10 -2 -20 -8 -7 -12 -19 -9 -27 3 -9
-12 -32 -41 -60 -25 -25 -46 -50 -46 -55 0 -6 -10 0 -22 12 -13 11 -42 34 -66
51 -51 35 -51 56 -3 80 26 13 38 14 48 6 7 -6 13 -7 13 -2 0 5 4 3 9 -5 5 -8
8 -21 6 -30 -19 -84 -19 -87 0 -69 13 12 19 33 19 67 1 50 1 50 36 54 19 2 37
4 40 5 3 1 11 -2 18 -7z"/>
<path d="M1703 1956 c-46 -18 -97 -45 -115 -60 -18 -15 -60 -45 -93 -67 -61
-41 -102 -85 -91 -97 4 -3 23 10 44 30 20 20 48 41 62 48 14 7 46 31 71 52 52
44 216 115 231 100 7 -7 4 -10 -7 -9 -29 3 -77 -85 -85 -156 -5 -41 -18 -81
-38 -117 -18 -30 -32 -61 -32 -67 0 -27 17 -11 43 40 15 28 34 63 42 76 8 15
11 37 8 54 -8 39 43 147 69 147 24 0 34 26 18 45 -17 21 -34 19 -127 -19z"/>
<path d="M731 1923 c-4 -112 -11 -245 -15 -273 -17 -131 -18 -160 -5 -189 8
-17 17 -31 21 -31 12 0 10 28 -3 52 -8 15 -8 37 1 82 6 33 13 117 16 186 2 69
6 138 7 154 1 16 -3 31 -10 33 -6 2 -12 -4 -12 -14z"/>
<path d="M1817 1913 c-4 -3 -2 -12 3 -18 6 -7 13 -37 15 -66 12 -130 16 -161
26 -187 20 -51 22 -119 5 -153 -21 -43 -8 -59 16 -20 24 37 26 107 4 167 -8
23 -17 79 -21 125 -7 94 -13 138 -21 151 -6 10 -18 10 -27 1z"/>
<path d="M2079 1719 c-68 -7 -159 -40 -180 -65 -17 -21 1 -18 82 15 54 22 87
29 126 27 36 -1 53 2 53 11 0 18 -10 20 -81 12z"/>
<path d="M401 1709 c-32 -13 -18 -28 74 -79 41 -22 82 -52 92 -66 10 -14 35
-45 55 -68 55 -62 84 -128 87 -193 2 -62 16 -96 55 -132 14 -13 23 -27 21 -32
-7 -11 13 -22 25 -14 13 8 -6 45 -32 63 -29 21 -48 67 -48 116 0 64 -33 144
-81 196 -22 25 -47 57 -56 71 -17 28 -28 36 -118 87 l-60 33 55 -5 c30 -3 65
-8 78 -10 39 -8 132 -54 132 -65 0 -6 5 -11 10 -11 6 0 10 8 10 19 0 24 -114
76 -190 86 -30 4 -62 9 -70 10 -8 1 -26 -1 -39 -6z"/>
<path d="M2160 1678 c-14 -5 -58 -28 -97 -50 -57 -33 -76 -49 -85 -75 -7 -18
-23 -40 -36 -49 -12 -8 -38 -39 -57 -69 -29 -44 -35 -65 -39 -123 -2 -43 -12
-84 -25 -110 -25 -48 -25 -52 -8 -52 19 0 50 86 57 159 7 76 25 116 78 168 21
21 43 50 49 65 12 27 111 92 158 104 27 7 50 30 38 37 -4 3 -19 0 -33 -5z"/>
<path d="M355 1669 c-4 -6 0 -16 8 -22 9 -7 40 -77 70 -155 31 -79 71 -170 91
-202 20 -32 36 -63 36 -69 0 -6 4 -11 9 -11 24 0 20 25 -12 73 -48 72 -49 77
-108 233 -61 163 -74 186 -94 153z"/>
<path d="M2164 1615 c-24 -24 -64 -104 -64 -128 0 -33 -25 -92 -70 -166 -53
-88 -65 -124 -25 -78 43 48 96 149 112 211 19 78 63 160 77 146 15 -15 26 -12
26 9 0 30 -28 33 -56 6z"/>
<path d="M809 1603 c0 -5 -3 -62 -6 -128 -10 -219 -9 -247 15 -291 32 -63 102
-128 158 -149 27 -11 53 -25 57 -33 7 -10 12 -10 23 -1 16 13 2 39 -21 39 -31
0 -105 41 -138 76 -70 74 -95 158 -76 261 11 58 14 144 6 168 -4 11 -3 26 2
33 19 30 250 -100 266 -150 4 -10 13 -18 21 -18 61 0 -88 128 -205 175 -61 25
-100 32 -102 18z"/>
<path d="M1796 1483 c4 -15 10 -37 14 -48 6 -18 6 -40 -2 -76 -2 -6 2 -13 8
-16 15 -5 27 60 18 90 -4 12 -8 33 -9 47 0 15 -8 26 -18 28 -15 3 -17 -1 -11
-25z"/>
<path d="M771 1482 c-5 -10 -9 -27 -9 -38 1 -10 -2 -34 -6 -51 -6 -26 -4 -33
7 -33 15 0 35 75 23 87 -3 3 -1 14 4 24 6 11 7 20 1 24 -6 3 -14 -3 -20 -13z"/>
<path d="M270 1302 c-106 -35 -155 -65 -155 -94 0 -23 1 -23 89 -20 48 2 114
-3 145 -9 31 -7 109 -13 174 -14 l117 -1 145 -74 c79 -40 142 -77 139 -82 -3
-4 2 -8 10 -8 8 0 17 4 20 9 9 15 -10 27 -194 122 l-104 54 -126 2 c-69 2
-145 7 -170 13 -61 14 -104 15 -174 6 -69 -9 -69 2 2 38 105 52 249 78 274 49
7 -9 14 -11 21 -4 7 7 6 15 -3 26 -19 23 -120 17 -210 -13z"/>
<path d="M2343 1170 c-41 -12 -90 -39 -150 -82 -49 -35 -110 -72 -136 -81 -26
-9 -67 -24 -92 -33 -25 -10 -44 -22 -42 -28 5 -13 1 -14 98 21 77 28 124 55
214 123 54 41 154 75 187 65 16 -6 19 -3 16 11 -4 25 -21 25 -95 4z"/>
<path d="M124 1159 c-10 -17 13 -34 29 -21 24 20 105 -10 205 -76 51 -34 131
-76 177 -93 46 -18 82 -36 79 -40 -9 -15 14 -18 26 -3 18 20 8 28 -84 60 -45
16 -120 54 -170 88 -50 33 -112 68 -139 78 -53 20 -112 24 -123 7z"/>
<path d="M742 972 c-30 -11 -70 -35 -90 -55 -24 -23 -51 -37 -77 -42 -63 -10
-107 -36 -142 -85 -18 -25 -39 -54 -47 -65 -14 -18 -15 -15 -15 40 -1 50 5 70
33 120 18 33 39 60 46 60 17 0 24 21 10 30 -17 11 -54 -29 -84 -90 -33 -67
-40 -165 -15 -190 15 -15 18 -15 33 0 9 10 32 42 51 71 36 56 53 67 138 87 32
8 63 25 89 49 70 64 78 65 427 53 85 -3 157 -8 160 -10 9 -10 21 -5 21 10 0
18 5 17 -145 20 -66 1 -169 5 -230 9 -95 6 -117 4 -163 -12z"/>
<path d="M1238 902 c-4 -13 -29 -23 -99 -39 -117 -27 -187 -40 -264 -48 -33
-4 -87 -13 -120 -21 -33 -8 -91 -17 -130 -20 -76 -6 -162 -29 -183 -50 -15
-16 -8 -34 14 -34 8 0 12 5 9 10 -10 15 59 41 123 45 74 6 142 16 168 26 21 8
35 10 159 25 33 4 62 8 65 9 3 1 25 5 50 9 86 15 205 47 228 62 19 12 21 18
11 30 -15 19 -26 18 -31 -4z"/>
<path d="M1318 905 c-3 -3 -4 -15 -1 -25 12 -47 203 -88 390 -84 62 1 143 -4
180 -11 37 -7 84 -16 103 -19 82 -13 140 -28 135 -36 -3 -5 -1 -11 5 -15 14
-9 25 24 13 36 -28 28 -298 69 -451 68 -182 -1 -318 27 -352 72 -9 11 -18 17
-22 14z"/>
<path d="M1027 763 c-13 -12 -7 -23 11 -23 10 0 31 -14 48 -31 16 -17 45 -39
65 -49 20 -10 49 -35 64 -55 56 -69 142 -69 209 1 43 44 145 124 158 124 5 0
8 7 8 15 0 8 -5 15 -11 15 -12 0 -87 -60 -166 -132 -74 -68 -113 -68 -190 1
-71 64 -170 141 -181 141 -5 0 -12 -3 -15 -7z"/>
<path d="M1866 753 c-10 -11 -7 -35 4 -28 16 10 49 -73 43 -109 -7 -44 -15
-49 -80 -47 -115 3 -181 23 -278 87 -26 17 -45 12 -45 -12 0 -9 7 -14 18 -13
9 2 42 -11 72 -29 30 -17 78 -36 105 -42 68 -14 187 -21 202 -12 15 10 33 57
33 88 0 51 -54 137 -74 117z"/>
<path d="M747 732 c-33 -36 -40 -85 -23 -159 5 -21 14 -33 24 -34 72 -3 183 4
210 12 19 6 60 26 91 43 31 18 62 31 69 28 7 -2 12 3 12 12 0 24 -22 19 -102
-23 -79 -42 -109 -50 -206 -52 -75 -2 -82 4 -82 76 0 55 10 78 31 73 8 -2 15
7 17 20 4 27 -18 30 -41 4z"/>
</g>
</svg>
